
<svg width="1249" height="460" viewBox="0 0 1249 460" fill="none" xmlns="http://www.w3.org/2000/svg">
<rect x="10.5" y="10.5" width="1228" height="439" rx="18.5" fill="white" stroke="black" stroke-width="21"/>
<path d="M267.369 81V330.48C336.261 330.48 392.109 274.632 392.109 205.74C392.109 136.848 336.261 81 267.369 81Z" fill="#F9D70B"/>
<path d="M143.52 255.5C143.52 268.621 132.881 279.26 119.76 279.26C106.639 279.26 96 268.621 96 255.5C96 246.067 108.284 221.535 115.186 208.496C117.129 204.825 122.391 204.825 124.334 208.496C131.236 221.535 143.52 246.061 143.52 255.5Z" fill="#F1B501"/>
<path d="M226.68 354.24C226.68 367.361 216.041 378 202.92 378C189.798 378 179.16 367.361 179.16 354.24C179.16 344.807 191.444 320.275 198.346 307.237C200.288 303.566 205.551 303.566 207.494 307.237C214.396 320.275 226.68 344.807 226.68 354.24Z" fill="#F9DA49"/>
<path d="M267.369 127.19C218.72 93.2011 151.301 97.8106 107.88 141.232L267.363 300.715V127.19H267.369Z" fill="#F1B501"/>
<path d="M267.369 157.917C227.922 118.6 164.078 118.636 124.684 158.03L267.369 300.715V157.917Z" fill="#F9DA49"/>
<path d="M267.369 157.917C265.991 156.539 264.512 155.327 263.074 154.05L202.029 215.096V128.74C201.245 128.692 200.461 128.657 199.677 128.627H192.442C191.676 128.657 190.915 128.692 190.149 128.74V223.495L196.089 229.429L202.029 235.369H267.191V223.489H210.428L267.363 166.548V157.917H267.369Z" fill="#F9EA80"/>
<path d="M267.369 81V330.48C336.261 330.48 392.109 274.632 392.109 205.74C392.109 136.848 336.261 81 267.369 81Z" fill="#F1B501"/>
<path d="M267.369 104.761V306.721C323.14 306.721 368.349 261.511 368.349 205.741C368.349 149.97 323.134 104.761 267.369 104.761Z" fill="#F9EA80"/>
<path d="M342.771 138.737C342.261 138.161 341.744 137.591 341.221 137.026L336.083 131.888C335.519 131.366 334.948 130.849 334.378 130.338L267.375 197.341V205.74V214.133L334.378 281.137C334.96 280.62 335.531 280.103 336.101 279.574L341.215 274.46C341.744 273.89 342.267 273.32 342.783 272.738L281.708 211.68H368.046C368.159 209.702 368.343 207.748 368.343 205.74C368.343 203.733 368.159 201.778 368.046 199.8H281.708L342.771 138.737Z" fill="#F9DA49"/>
<path d="M516.961 136.924V130.374H491.597V110.85H520.799V104.259H483.879V165H521.175V158.45H491.597V136.924H516.961ZM566.648 149.648C566.648 151.316 566.286 152.763 565.563 153.986C564.84 155.182 563.908 156.17 562.768 156.948C561.628 157.755 560.32 158.353 558.846 158.742C557.4 159.104 555.926 159.285 554.424 159.285C552.533 159.285 550.781 159.034 549.168 158.534C547.582 158.005 546.178 157.227 544.954 156.197C543.73 155.196 542.729 153.973 541.951 152.526C541.172 151.052 540.657 149.37 540.407 147.478H532.522C532.606 150.093 533.176 152.471 534.233 154.612C535.317 156.726 536.777 158.575 538.613 160.161C540.671 161.996 543.091 163.401 545.872 164.374C548.681 165.348 551.532 165.834 554.424 165.834C556.844 165.834 559.263 165.501 561.683 164.833C564.103 164.138 566.272 163.109 568.191 161.746C570.11 160.411 571.668 158.728 572.864 156.698C574.087 154.668 574.699 152.29 574.699 149.564C574.699 146.867 574.129 144.489 572.989 142.431C571.876 140.372 570.402 138.634 568.567 137.216C566.703 135.686 564.645 134.435 562.392 133.461C560.14 132.46 557.887 131.612 555.634 130.916C554.271 130.499 552.811 130.012 551.254 129.456C549.724 128.9 548.306 128.205 546.998 127.37C545.663 126.536 544.565 125.521 543.703 124.325C542.841 123.101 542.396 121.613 542.368 119.861C542.368 118.248 542.688 116.83 543.327 115.606C543.995 114.382 544.885 113.353 545.997 112.519C547.082 111.684 548.319 111.059 549.71 110.641C551.128 110.224 552.575 110.016 554.049 110.016C555.884 110.016 557.525 110.308 558.971 110.892C560.446 111.448 561.711 112.241 562.768 113.27C563.825 114.299 564.673 115.536 565.313 116.983C565.952 118.401 566.383 119.986 566.606 121.738H574.532C574.477 118.957 573.879 116.44 572.738 114.187C571.598 111.935 570.082 110.016 568.191 108.43C566.3 106.845 564.131 105.621 561.683 104.759C559.236 103.869 556.691 103.424 554.049 103.424C551.657 103.424 549.279 103.8 546.915 104.551C544.551 105.274 542.437 106.344 540.574 107.763C538.71 109.181 537.195 110.92 536.027 112.978C534.886 115.036 534.316 117.372 534.316 119.986C534.316 122.601 534.886 124.881 536.027 126.828C537.195 128.747 538.697 130.416 540.532 131.834C542.34 133.225 544.342 134.421 546.54 135.422C548.764 136.395 550.948 137.23 553.089 137.925C554.563 138.398 556.093 138.926 557.678 139.51C559.291 140.094 560.765 140.817 562.1 141.68C563.435 142.57 564.52 143.654 565.354 144.934C566.217 146.213 566.648 147.784 566.648 149.648ZM594.891 158.45V104.259H587.173V165H624.594V158.45H594.891ZM637.485 104.259V110.975H651.711V158.325H637.485V165H674.197V158.325H659.637V110.975H674.197V104.259H637.485ZM726.845 165V104.259H719.043L718.918 149.564L695.348 104.259H687.505V165H695.306L695.431 119.611L719.002 165H726.845ZM781.078 110.85V104.259H736.023V110.85H754.796V165H762.305V110.85H781.078ZM882.077 146.728H874.36C874.109 148.563 873.678 150.274 873.066 151.859C872.455 153.416 871.634 154.765 870.605 155.905C869.576 157.074 868.311 157.977 866.809 158.617C865.335 159.257 863.582 159.577 861.552 159.577C859.689 159.577 858.062 159.285 856.671 158.701C855.281 158.089 854.071 157.254 853.042 156.197C852.013 155.168 851.164 153.973 850.497 152.61C849.829 151.247 849.287 149.787 848.87 148.229C848.453 146.7 848.147 145.142 847.952 143.557C847.785 141.944 847.702 140.386 847.702 138.885V130.332C847.702 128.83 847.785 127.287 847.952 125.702C848.147 124.089 848.453 122.517 848.87 120.987C849.287 119.458 849.829 118.012 850.497 116.649C851.192 115.286 852.054 114.09 853.083 113.061C854.085 112.032 855.281 111.225 856.671 110.641C858.09 110.03 859.717 109.724 861.552 109.724C863.582 109.724 865.335 110.071 866.809 110.767C868.311 111.434 869.576 112.366 870.605 113.562C871.634 114.758 872.455 116.148 873.066 117.733C873.678 119.319 874.109 121.029 874.36 122.865H882.077C881.744 119.972 881.048 117.33 879.992 114.938C878.963 112.547 877.586 110.488 875.861 108.764C874.137 107.068 872.079 105.76 869.687 104.843C867.295 103.897 864.584 103.424 861.552 103.424C859.021 103.424 856.741 103.786 854.71 104.509C852.68 105.204 850.872 106.178 849.287 107.429C847.674 108.681 846.283 110.169 845.115 111.893C843.975 113.59 843.029 115.439 842.278 117.441C841.5 119.444 840.916 121.544 840.526 123.741C840.165 125.938 839.97 128.163 839.942 130.416V138.885C839.97 141.137 840.165 143.362 840.526 145.559C840.916 147.757 841.5 149.856 842.278 151.859C843.029 153.861 843.975 155.711 845.115 157.407C846.283 159.104 847.674 160.578 849.287 161.829C850.872 163.081 852.68 164.068 854.71 164.791C856.769 165.487 859.049 165.834 861.552 165.834C864.472 165.834 867.115 165.375 869.479 164.458C871.87 163.512 873.942 162.191 875.695 160.494C877.419 158.826 878.823 156.823 879.908 154.487C880.993 152.123 881.716 149.537 882.077 146.728ZM933.557 138.134V131.208C933.53 129.039 933.335 126.842 932.973 124.617C932.64 122.392 932.111 120.25 931.388 118.192C930.637 116.134 929.692 114.215 928.551 112.435C927.439 110.628 926.104 109.056 924.546 107.721C922.989 106.386 921.195 105.343 919.165 104.592C917.134 103.814 914.868 103.424 912.365 103.424C909.862 103.424 907.595 103.814 905.565 104.592C903.562 105.343 901.782 106.386 900.225 107.721C898.667 109.084 897.318 110.669 896.178 112.477C895.066 114.257 894.148 116.176 893.425 118.234C892.674 120.292 892.118 122.434 891.756 124.659C891.422 126.856 891.242 129.039 891.214 131.208V138.134C891.242 140.303 891.436 142.486 891.798 144.683C892.159 146.88 892.716 149.008 893.466 151.066C894.19 153.124 895.121 155.057 896.262 156.865C897.402 158.645 898.751 160.202 900.308 161.537C901.866 162.872 903.646 163.929 905.648 164.708C907.678 165.459 909.945 165.834 912.448 165.834C914.951 165.834 917.204 165.459 919.206 164.708C921.237 163.929 923.031 162.872 924.588 161.537C926.146 160.202 927.481 158.645 928.593 156.865C929.733 155.085 930.665 153.166 931.388 151.108C932.111 149.05 932.64 146.922 932.973 144.725C933.335 142.5 933.53 140.303 933.557 138.134ZM925.923 131.125V138.134C925.895 139.58 925.798 141.096 925.631 142.681C925.492 144.266 925.228 145.824 924.838 147.353C924.421 148.911 923.879 150.399 923.211 151.817C922.572 153.208 921.765 154.431 920.792 155.488C919.791 156.573 918.595 157.435 917.204 158.075C915.841 158.714 914.256 159.034 912.448 159.034C910.64 159.034 909.055 158.714 907.692 158.075C906.33 157.435 905.148 156.573 904.146 155.488C903.145 154.431 902.311 153.194 901.643 151.775C900.976 150.357 900.433 148.869 900.016 147.312C899.599 145.782 899.293 144.224 899.098 142.639C898.932 141.054 898.834 139.552 898.806 138.134V131.125C898.834 129.707 898.932 128.219 899.098 126.661C899.293 125.076 899.599 123.504 900.016 121.947C900.406 120.417 900.934 118.957 901.601 117.567C902.269 116.148 903.103 114.897 904.105 113.812C905.106 112.755 906.288 111.907 907.651 111.267C909.013 110.628 910.585 110.308 912.365 110.308C914.173 110.308 915.758 110.628 917.121 111.267C918.483 111.879 919.665 112.713 920.667 113.77C921.668 114.855 922.502 116.106 923.17 117.525C923.837 118.916 924.38 120.376 924.797 121.905C925.186 123.463 925.464 125.034 925.631 126.619C925.798 128.177 925.895 129.679 925.923 131.125ZM983.41 165V104.259H975.609L975.484 149.564L951.913 104.259H944.07V165H951.872L951.997 119.611L975.568 165H983.41ZM1030.47 138.175V131.626H1005.19V110.85H1034.68V104.259H997.386V165H1005.19V138.175H1030.47ZM1047.99 104.259V110.975H1062.22V158.325H1047.99V165H1084.7V158.325H1070.14V110.975H1084.7V104.259H1047.99ZM1138.6 157.032L1138.48 134.754H1118.79V141.262H1131.13L1131.05 154.904C1130.41 155.822 1129.62 156.573 1128.67 157.157C1127.73 157.713 1126.71 158.158 1125.63 158.492C1124.54 158.826 1123.42 159.048 1122.25 159.159C1121.11 159.271 1120.01 159.312 1118.95 159.285C1117.12 159.257 1115.48 158.937 1114.03 158.325C1112.58 157.685 1111.32 156.837 1110.23 155.78C1109.12 154.723 1108.18 153.5 1107.4 152.109C1106.62 150.719 1105.98 149.244 1105.48 147.687C1104.98 146.13 1104.6 144.544 1104.35 142.931C1104.13 141.29 1104 139.705 1103.98 138.175V131.042C1103.98 129.54 1104.07 127.982 1104.27 126.369C1104.46 124.756 1104.78 123.171 1105.23 121.613C1105.67 120.056 1106.24 118.582 1106.94 117.191C1107.63 115.773 1108.51 114.535 1109.57 113.478C1110.62 112.421 1111.86 111.587 1113.28 110.975C1114.7 110.336 1116.32 110.016 1118.16 110.016C1120.08 110.016 1121.76 110.322 1123.21 110.933C1124.65 111.518 1125.91 112.338 1126.96 113.395C1127.99 114.452 1128.83 115.731 1129.47 117.233C1130.1 118.707 1130.58 120.32 1130.88 122.072H1138.52C1138.27 119.235 1137.6 116.677 1136.52 114.396C1135.43 112.088 1134 110.113 1132.22 108.472C1130.44 106.859 1128.35 105.621 1125.96 104.759C1123.57 103.869 1120.95 103.424 1118.12 103.424C1115.56 103.424 1113.25 103.8 1111.19 104.551C1109.13 105.302 1107.3 106.317 1105.69 107.596C1104.05 108.903 1102.64 110.447 1101.47 112.227C1100.3 113.979 1099.33 115.884 1098.55 117.942C1097.77 120 1097.19 122.156 1096.8 124.408C1096.44 126.633 1096.24 128.872 1096.22 131.125V138.175C1096.24 140.456 1096.47 142.723 1096.88 144.975C1097.33 147.2 1097.98 149.328 1098.84 151.358C1099.68 153.416 1100.72 155.321 1101.97 157.074C1103.22 158.826 1104.68 160.341 1106.35 161.621C1108.02 162.928 1109.9 163.957 1111.99 164.708C1114.1 165.431 1116.41 165.807 1118.91 165.834C1121.39 165.862 1123.75 165.584 1126 165C1128.26 164.444 1130.36 163.582 1132.3 162.413C1133.44 161.746 1134.54 160.967 1135.6 160.077C1136.65 159.159 1137.66 158.144 1138.6 157.032Z" fill="black"/>
<path d="M481.446 357.918V206.243H515.643V329.072H583.106V357.918H481.446ZM617.444 357.918V206.243H717.941V235.089H651.873V265.564H707.937V294.177H651.873V329.072H720.267V357.918H617.444ZM749.022 357.918V206.243H784.847L799.736 259.98L804.854 280.917H805.784L810.902 259.98L825.79 206.243H861.616V357.918H832.769V310.927C832.769 306.739 832.924 301.466 833.235 295.108C833.545 288.749 833.932 282.235 834.398 275.567C834.863 268.898 835.328 262.462 835.793 256.258C836.414 249.9 836.879 244.704 837.189 240.672H836.491L824.86 281.15L813.228 317.673H796.479L784.615 281.15L773.681 240.672H772.983C773.448 244.704 773.914 249.9 774.379 256.258C774.844 262.462 775.309 268.898 775.775 275.567C776.24 282.235 776.628 288.749 776.938 295.108C777.248 301.466 777.403 306.739 777.403 310.927V357.918H749.022ZM944.806 360.71C935.811 360.71 927.514 359.004 919.915 355.592C912.471 352.18 906.035 347.139 900.607 340.471C895.334 333.802 891.224 325.582 888.277 315.812C885.331 305.886 883.857 294.41 883.857 281.382C883.857 268.665 885.331 257.499 888.277 247.884C891.224 238.113 895.334 229.971 900.607 223.457C906.035 216.789 912.471 211.826 919.915 208.569C927.514 205.157 935.811 203.451 944.806 203.451C953.802 203.451 962.021 205.157 969.465 208.569C977.065 211.826 983.501 216.789 988.774 223.457C994.202 229.971 998.389 238.113 1001.34 247.884C1004.28 257.499 1005.76 268.665 1005.76 281.382C1005.76 294.41 1004.28 305.886 1001.34 315.812C998.389 325.582 994.202 333.802 988.774 340.471C983.501 347.139 977.065 352.18 969.465 355.592C962.021 359.004 953.802 360.71 944.806 360.71ZM944.806 331.165C952.716 331.165 958.997 326.978 963.65 318.603C968.302 310.229 970.628 297.822 970.628 281.382C970.628 265.564 968.302 253.544 963.65 245.325C958.997 237.105 952.716 232.995 944.806 232.995C936.897 232.995 930.616 237.105 925.963 245.325C921.311 253.544 918.984 265.564 918.984 281.382C918.984 297.822 921.311 310.229 925.963 318.603C930.616 326.978 936.897 331.165 944.806 331.165ZM1029.86 357.918V206.243H1064.99L1096.86 281.615L1109.88 315.114H1110.81C1110.04 307.049 1109.03 298.132 1107.79 288.361C1106.55 278.436 1105.93 268.975 1105.93 259.98V206.243H1138.73V357.918H1103.6L1071.73 282.313L1058.7 249.279H1057.77C1058.55 257.654 1059.56 266.649 1060.8 276.265C1062.04 285.88 1062.66 295.185 1062.66 304.18V357.918H1029.86Z" fill="black"/>
</svg>
