
<svg width="206" height="71" viewBox="0 0 206 71" fill="none" xmlns="http://www.w3.org/2000/svg">
<path d="M74.8472 18.0566H71.2847V21.0801H75.439V22H70.2008V13.4688H75.3863V14.3945H71.2847V17.1367H74.8472V18.0566ZM81.8258 19.8438C81.8258 19.582 81.7652 19.3613 81.6441 19.1816C81.5269 19.002 81.3746 18.8516 81.1871 18.7305C80.9996 18.6055 80.7926 18.502 80.566 18.4199C80.3433 18.3379 80.1285 18.2637 79.9215 18.1973C79.6207 18.0996 79.314 17.9824 79.0015 17.8457C78.6929 17.709 78.4097 17.541 78.1519 17.3418C77.898 17.1426 77.689 16.9082 77.525 16.6387C77.3648 16.3652 77.2847 16.0449 77.2847 15.6777C77.2847 15.3105 77.3648 14.9824 77.525 14.6934C77.689 14.4043 77.9019 14.1602 78.1637 13.9609C78.4254 13.7617 78.7222 13.6113 79.0543 13.5098C79.3863 13.4043 79.7203 13.3516 80.0562 13.3516C80.4273 13.3516 80.7847 13.4141 81.1285 13.5391C81.4722 13.6602 81.7769 13.832 82.0426 14.0547C82.3082 14.2773 82.5211 14.5469 82.6812 14.8633C82.8414 15.1797 82.9254 15.5332 82.9332 15.9238H81.8199C81.7887 15.6777 81.7281 15.4551 81.6383 15.2559C81.5484 15.0527 81.4293 14.8789 81.2808 14.7344C81.1324 14.5898 80.9547 14.4785 80.7476 14.4004C80.5445 14.3184 80.314 14.2773 80.0562 14.2773C79.8492 14.2773 79.6461 14.3066 79.4469 14.3652C79.2515 14.4238 79.0758 14.5117 78.9195 14.6289C78.7672 14.7461 78.6441 14.8906 78.5504 15.0625C78.4605 15.2344 78.4156 15.4336 78.4156 15.6602C78.4195 15.9062 78.482 16.1152 78.6031 16.2871C78.7242 16.4551 78.8765 16.5977 79.0601 16.7148C79.2476 16.832 79.4488 16.9297 79.6637 17.0078C79.8824 17.0859 80.0875 17.1543 80.2789 17.2129C80.4898 17.2793 80.7027 17.3555 80.9176 17.4414C81.1324 17.5234 81.3394 17.6191 81.5387 17.7285C81.7379 17.8379 81.9234 17.9609 82.0953 18.0977C82.2672 18.2344 82.4176 18.3906 82.5465 18.5664C82.6754 18.7383 82.775 18.9297 82.8453 19.1406C82.9195 19.3477 82.9566 19.5781 82.9566 19.832C82.9566 20.2148 82.8707 20.5488 82.6988 20.834C82.5308 21.1191 82.3121 21.3574 82.0426 21.5488C81.773 21.7363 81.4683 21.8789 81.1285 21.9766C80.7887 22.0703 80.4488 22.1172 80.109 22.1172C79.7301 22.1172 79.359 22.0586 78.9957 21.9414C78.6324 21.8242 78.3062 21.6562 78.0172 21.4375C77.732 21.2148 77.4996 20.9453 77.3199 20.6289C77.1402 20.3086 77.0445 19.9453 77.0328 19.5391H78.1402C78.1754 19.8047 78.2476 20.041 78.357 20.248C78.4664 20.4512 78.607 20.625 78.7789 20.7695C78.9508 20.9102 79.148 21.0176 79.3707 21.0918C79.5972 21.1621 79.8433 21.1973 80.109 21.1973C80.3199 21.1973 80.5269 21.1719 80.7301 21.1211C80.9371 21.0664 81.1207 20.9844 81.2808 20.875C81.441 20.7617 81.5719 20.6211 81.6734 20.4531C81.775 20.2812 81.8258 20.0781 81.8258 19.8438ZM85.7926 21.0801H89.9644V22H84.7086V13.4688H85.7926V21.0801ZM91.775 13.4688H96.9312V14.4121H94.8863V21.0625H96.9312V22H91.775V21.0625H93.773V14.4121H91.775V13.4688ZM104.326 22H103.224L99.9137 15.625L99.8961 22H98.8004V13.4688H99.9019L103.212 19.832L103.23 13.4688H104.326V22ZM111.943 14.3945H109.306V22H108.252V14.3945H105.615V13.4688H111.943V14.3945ZM126.128 19.4336C126.078 19.8281 125.976 20.1914 125.824 20.5234C125.671 20.8516 125.472 21.1348 125.226 21.373C124.984 21.6074 124.695 21.791 124.359 21.9238C124.027 22.0527 123.656 22.1172 123.246 22.1172C122.894 22.1172 122.574 22.0684 122.285 21.9707C122 21.8691 121.744 21.7305 121.517 21.5547C121.295 21.3789 121.101 21.1719 120.937 20.9336C120.777 20.6953 120.642 20.4355 120.533 20.1543C120.427 19.873 120.347 19.5781 120.293 19.2695C120.242 18.9609 120.214 18.6484 120.211 18.332V17.1426C120.214 16.8262 120.242 16.5137 120.293 16.2051C120.347 15.8965 120.427 15.6016 120.533 15.3203C120.642 15.0391 120.777 14.7793 120.937 14.541C121.101 14.2988 121.295 14.0898 121.517 13.9141C121.744 13.7383 122 13.6016 122.285 13.5039C122.57 13.4023 122.89 13.3516 123.246 13.3516C123.671 13.3516 124.052 13.418 124.388 13.5508C124.724 13.6797 125.013 13.8652 125.255 14.1074C125.498 14.3457 125.691 14.6328 125.836 14.9688C125.984 15.3047 126.082 15.6758 126.128 16.082H125.045C125.009 15.8242 124.949 15.584 124.863 15.3613C124.777 15.1387 124.662 14.9434 124.517 14.7754C124.373 14.6074 124.195 14.4766 123.984 14.3828C123.777 14.2852 123.531 14.2363 123.246 14.2363C122.988 14.2363 122.759 14.2793 122.56 14.3652C122.365 14.4473 122.195 14.5605 122.05 14.7051C121.91 14.8496 121.791 15.0176 121.693 15.209C121.599 15.4004 121.523 15.6035 121.464 15.8184C121.406 16.0332 121.363 16.2539 121.336 16.4805C121.312 16.7031 121.3 16.9199 121.3 17.1309V18.332C121.3 18.543 121.312 18.7617 121.336 18.9883C121.363 19.2109 121.406 19.4316 121.464 19.6504C121.523 19.8652 121.599 20.0684 121.693 20.2598C121.787 20.4512 121.906 20.6211 122.05 20.7695C122.195 20.9141 122.365 21.0293 122.56 21.1152C122.755 21.1973 122.984 21.2383 123.246 21.2383C123.531 21.2383 123.777 21.1934 123.984 21.1035C124.195 21.0137 124.373 20.8887 124.517 20.7285C124.662 20.5645 124.777 20.373 124.863 20.1543C124.949 19.9316 125.009 19.6914 125.045 19.4336H126.128ZM133.359 18.2266C133.355 18.5312 133.328 18.8398 133.277 19.1523C133.23 19.4609 133.156 19.7598 133.054 20.0488C132.953 20.3379 132.822 20.6074 132.662 20.8574C132.505 21.1074 132.318 21.3262 132.099 21.5137C131.88 21.7012 131.628 21.8496 131.343 21.959C131.062 22.0645 130.746 22.1172 130.394 22.1172C130.043 22.1172 129.724 22.0645 129.439 21.959C129.158 21.8496 128.908 21.7012 128.689 21.5137C128.47 21.3262 128.281 21.1074 128.121 20.8574C127.961 20.6035 127.828 20.332 127.722 20.043C127.621 19.7539 127.545 19.4551 127.494 19.1465C127.443 18.8379 127.416 18.5312 127.412 18.2266V17.2539C127.416 16.9492 127.441 16.6426 127.488 16.334C127.539 16.0215 127.615 15.7207 127.716 15.4316C127.822 15.1426 127.953 14.873 128.109 14.623C128.269 14.3691 128.459 14.1484 128.677 13.9609C128.896 13.7695 129.146 13.6211 129.427 13.5156C129.712 13.4062 130.031 13.3516 130.382 13.3516C130.734 13.3516 131.052 13.4062 131.337 13.5156C131.623 13.6211 131.875 13.7676 132.093 13.9551C132.312 14.1426 132.5 14.3633 132.656 14.6172C132.816 14.8672 132.947 15.1367 133.048 15.4258C133.154 15.7148 133.23 16.0156 133.277 16.3281C133.328 16.6406 133.355 16.9492 133.359 17.2539V18.2266ZM132.287 17.2422C132.283 17.0391 132.269 16.8281 132.246 16.6094C132.222 16.3867 132.181 16.168 132.123 15.9531C132.068 15.7344 131.994 15.5273 131.9 15.332C131.806 15.1328 131.689 14.959 131.548 14.8105C131.408 14.6582 131.242 14.5391 131.05 14.4531C130.859 14.3633 130.636 14.3184 130.382 14.3184C130.132 14.3184 129.912 14.3633 129.72 14.4531C129.529 14.543 129.363 14.6641 129.222 14.8164C129.082 14.9648 128.964 15.1387 128.871 15.3379C128.777 15.5332 128.701 15.7402 128.642 15.959C128.587 16.1738 128.546 16.3926 128.519 16.6152C128.496 16.834 128.482 17.043 128.478 17.2422V18.2266C128.482 18.4258 128.496 18.6367 128.519 18.8594C128.546 19.082 128.589 19.3027 128.648 19.5215C128.707 19.7363 128.783 19.9434 128.877 20.1426C128.97 20.3418 129.087 20.5176 129.228 20.6699C129.369 20.8184 129.535 20.9375 129.726 21.0273C129.918 21.1172 130.14 21.1621 130.394 21.1621C130.648 21.1621 130.871 21.1172 131.062 21.0273C131.257 20.9375 131.423 20.8184 131.56 20.6699C131.701 20.5176 131.816 20.3438 131.906 20.1484C132 19.9492 132.074 19.7422 132.128 19.5273C132.187 19.3086 132.226 19.0879 132.246 18.8652C132.269 18.6426 132.283 18.4297 132.287 18.2266V17.2422ZM140.361 22H139.259L135.949 15.625L135.931 22H134.836V13.4688H135.937L139.248 19.832L139.265 13.4688H140.361V22ZM146.97 18.2324H143.42V22H142.324V13.4688H147.562V14.3945H143.42V17.3125H146.97V18.2324ZM149.431 13.4688H154.587V14.4121H152.543V21.0625H154.587V22H149.431V21.0625H151.429V14.4121H149.431V13.4688ZM162.158 20.8809C161.798 21.3027 161.386 21.6152 160.921 21.8184C160.457 22.0215 159.947 22.1211 159.392 22.1172C159.041 22.1133 158.716 22.0605 158.42 21.959C158.127 21.8535 157.863 21.7109 157.628 21.5312C157.394 21.3477 157.189 21.1328 157.013 20.8867C156.837 20.6406 156.689 20.375 156.568 20.0898C156.451 19.8008 156.361 19.5 156.298 19.1875C156.24 18.8711 156.209 18.5527 156.205 18.2324V17.2422C156.209 16.9258 156.236 16.6113 156.287 16.2988C156.341 15.9824 156.423 15.6797 156.533 15.3906C156.642 15.1016 156.779 14.834 156.943 14.5879C157.107 14.3379 157.302 14.123 157.529 13.9434C157.759 13.7598 158.019 13.6152 158.308 13.5098C158.597 13.4043 158.921 13.3516 159.281 13.3516C159.679 13.3516 160.046 13.4141 160.382 13.5391C160.718 13.6602 161.011 13.8359 161.261 14.0664C161.511 14.293 161.712 14.5684 161.865 14.8926C162.017 15.2129 162.111 15.5723 162.146 15.9707H161.074C161.031 15.7246 160.964 15.498 160.875 15.291C160.785 15.0801 160.666 14.9004 160.517 14.752C160.373 14.6035 160.199 14.4883 159.996 14.4062C159.793 14.3203 159.556 14.2773 159.287 14.2773C159.029 14.2773 158.8 14.3223 158.601 14.4121C158.402 14.498 158.228 14.6152 158.08 14.7637C157.931 14.9121 157.808 15.0859 157.711 15.2852C157.613 15.4805 157.533 15.6875 157.47 15.9062C157.408 16.125 157.363 16.3477 157.336 16.5742C157.308 16.8008 157.295 17.0195 157.295 17.2305V18.2324C157.298 18.4473 157.316 18.6699 157.347 18.9004C157.382 19.127 157.435 19.3496 157.505 19.5684C157.576 19.7871 157.666 19.9941 157.775 20.1895C157.884 20.3848 158.015 20.5566 158.168 20.7051C158.324 20.8535 158.503 20.9727 158.707 21.0625C158.91 21.1484 159.14 21.1934 159.398 21.1973C159.546 21.2012 159.701 21.1953 159.861 21.1797C160.025 21.1641 160.183 21.1328 160.336 21.0859C160.488 21.0391 160.63 20.9766 160.763 20.8984C160.896 20.8164 161.007 20.7109 161.097 20.582L161.109 18.666H159.375V17.752H162.14L162.158 20.8809Z" fill="black"/>
<path d="M70.314 56V30.296H73.554V53.12H84.786V56H70.314ZM103.557 56H89.193V30.296H103.557V33.14H92.433V41.168H102.909V43.976H92.433V53.156H103.557V56ZM120.537 56L112.077 33.464H111.933C112.005 34.208 112.065 35.216 112.113 36.488C112.161 37.736 112.185 39.044 112.185 40.412V56H109.197V30.296H113.985L121.905 51.356H122.049L130.113 30.296H134.865V56H131.661V40.196C131.661 38.948 131.685 37.712 131.733 36.488C131.805 35.264 131.865 34.268 131.913 33.5H131.769L123.201 56H120.537ZM164.285 43.112C164.285 45.776 163.829 48.104 162.917 50.096C162.029 52.064 160.709 53.6 158.957 54.704C157.205 55.808 155.033 56.36 152.441 56.36C149.777 56.36 147.557 55.808 145.781 54.704C144.029 53.6 142.721 52.052 141.857 50.06C140.993 48.068 140.561 45.74 140.561 43.076C140.561 40.436 140.993 38.132 141.857 36.164C142.721 34.196 144.029 32.66 145.781 31.556C147.557 30.452 149.789 29.9 152.477 29.9C155.045 29.9 157.205 30.452 158.957 31.556C160.709 32.636 162.029 34.172 162.917 36.164C163.829 38.132 164.285 40.448 164.285 43.112ZM143.981 43.112C143.981 46.352 144.665 48.908 146.033 50.78C147.401 52.628 149.537 53.552 152.441 53.552C155.369 53.552 157.505 52.628 158.849 50.78C160.193 48.908 160.865 46.352 160.865 43.112C160.865 39.872 160.193 37.34 158.849 35.516C157.505 33.668 155.381 32.744 152.477 32.744C149.573 32.744 147.425 33.668 146.033 35.516C144.665 37.34 143.981 39.872 143.981 43.112ZM190.358 56H186.578L172.826 34.652H172.682C172.73 35.492 172.79 36.536 172.862 37.784C172.934 39.032 172.97 40.316 172.97 41.636V56H169.982V30.296H173.726L187.442 51.572H187.586C187.562 51.188 187.526 50.612 187.478 49.844C187.454 49.076 187.418 48.236 187.37 47.324C187.346 46.412 187.334 45.572 187.334 44.804V30.296H190.358V56Z" fill="black"/>
<g clip-path="url(#clip0)">
<path d="M41.9843 11V53C53.5823 53 62.9843 43.598 62.9843 32C62.9843 20.402 53.5823 11 41.9843 11Z" fill="#F9D70B"/>
<path d="M21.1344 40.377C21.1344 42.586 19.3434 44.377 17.1344 44.377C14.9254 44.377 13.1344 42.586 13.1344 40.377C13.1344 38.789 15.2024 34.659 16.3644 32.464C16.6914 31.846 17.5774 31.846 17.9044 32.464C19.0664 34.659 21.1344 38.788 21.1344 40.377Z" fill="#F1B501"/>
<path d="M35.1344 57C35.1344 59.209 33.3434 61 31.1344 61C28.9254 61 27.1344 59.209 27.1344 57C27.1344 55.412 29.2024 51.282 30.3644 49.087C30.6914 48.469 31.5774 48.469 31.9044 49.087C33.0664 51.282 35.1344 55.412 35.1344 57Z" fill="#F9DA49"/>
<path d="M41.9844 18.776C33.7944 13.054 22.4444 13.83 15.1344 21.14L41.9834 47.989V18.776H41.9844Z" fill="#F1B501"/>
<path d="M41.9843 23.949C35.3433 17.33 24.5953 17.336 17.9633 23.968L41.9843 47.989V23.949Z" fill="#F9DA49"/>
<path d="M41.9844 23.949C41.7524 23.717 41.5034 23.513 41.2614 23.298L30.9844 33.575V19.037C30.8524 19.029 30.7204 19.023 30.5884 19.018H29.3704C29.2414 19.023 29.1134 19.029 28.9844 19.037V34.989L29.9844 35.988L30.9844 36.988H41.9544V34.988H32.3984L41.9834 25.402V23.949H41.9844Z" fill="#F9EA80"/>
<path d="M41.9843 11V53C53.5823 53 62.9843 43.598 62.9843 32C62.9843 20.402 53.5823 11 41.9843 11Z" fill="#F1B501"/>
<path d="M41.9843 15V49C51.3733 49 58.9843 41.389 58.9843 32C58.9843 22.611 51.3723 15 41.9843 15Z" fill="#F9EA80"/>
<path d="M54.6784 20.72C54.5924 20.623 54.5054 20.527 54.4174 20.432L53.5524 19.567C53.4574 19.479 53.3614 19.392 53.2654 19.306L41.9854 30.586V32V33.413L53.2654 44.693C53.3634 44.606 53.4593 44.519 53.5553 44.43L54.4163 43.569C54.5053 43.473 54.5933 43.377 54.6803 43.279L44.3984 33H58.9334C58.9524 32.667 58.9834 32.338 58.9834 32C58.9834 31.662 58.9524 31.333 58.9334 31H44.3984L54.6784 20.72Z" fill="#F9DA49"/>
</g>
<rect x="0.634354" y="0.5" width="204" height="70" rx="2.5" stroke="black"/>
<defs>
<clipPath id="clip0">
<rect width="50" height="50" fill="white" transform="translate(13.1344 11)"/>
</clipPath>
</defs>
</svg>
