<svg width="205" height="71" viewBox="0 0 205 71" fill="none" xmlns="http://www.w3.org/2000/svg">
<path d="M75.7129 18.0566H72.1504V21.0801H76.3047V22H71.0664V13.4688H76.252V14.3945H72.1504V17.1367H75.7129V18.0566ZM82.6914 19.8438C82.6914 19.582 82.6309 19.3613 82.5098 19.1816C82.3926 19.002 82.2402 18.8516 82.0527 18.7305C81.8652 18.6055 81.6582 18.502 81.4316 18.4199C81.209 18.3379 80.9941 18.2637 80.7871 18.1973C80.4863 18.0996 80.1797 17.9824 79.8672 17.8457C79.5586 17.709 79.2754 17.541 79.0176 17.3418C78.7637 17.1426 78.5547 16.9082 78.3906 16.6387C78.2305 16.3652 78.1504 16.0449 78.1504 15.6777C78.1504 15.3105 78.2305 14.9824 78.3906 14.6934C78.5547 14.4043 78.7676 14.1602 79.0293 13.9609C79.291 13.7617 79.5879 13.6113 79.9199 13.5098C80.252 13.4043 80.5859 13.3516 80.9219 13.3516C81.293 13.3516 81.6504 13.4141 81.9941 13.5391C82.3379 13.6602 82.6426 13.832 82.9082 14.0547C83.1738 14.2773 83.3867 14.5469 83.5469 14.8633C83.707 15.1797 83.791 15.5332 83.7988 15.9238H82.6855C82.6543 15.6777 82.5938 15.4551 82.5039 15.2559C82.4141 15.0527 82.2949 14.8789 82.1465 14.7344C81.998 14.5898 81.8203 14.4785 81.6133 14.4004C81.4102 14.3184 81.1797 14.2773 80.9219 14.2773C80.7148 14.2773 80.5117 14.3066 80.3125 14.3652C80.1172 14.4238 79.9414 14.5117 79.7852 14.6289C79.6328 14.7461 79.5098 14.8906 79.416 15.0625C79.3262 15.2344 79.2812 15.4336 79.2812 15.6602C79.2852 15.9062 79.3477 16.1152 79.4688 16.2871C79.5898 16.4551 79.7422 16.5977 79.9258 16.7148C80.1133 16.832 80.3145 16.9297 80.5293 17.0078C80.748 17.0859 80.9531 17.1543 81.1445 17.2129C81.3555 17.2793 81.5684 17.3555 81.7832 17.4414C81.998 17.5234 82.2051 17.6191 82.4043 17.7285C82.6035 17.8379 82.7891 17.9609 82.9609 18.0977C83.1328 18.2344 83.2832 18.3906 83.4121 18.5664C83.541 18.7383 83.6406 18.9297 83.7109 19.1406C83.7852 19.3477 83.8223 19.5781 83.8223 19.832C83.8223 20.2148 83.7363 20.5488 83.5645 20.834C83.3965 21.1191 83.1777 21.3574 82.9082 21.5488C82.6387 21.7363 82.334 21.8789 81.9941 21.9766C81.6543 22.0703 81.3145 22.1172 80.9746 22.1172C80.5957 22.1172 80.2246 22.0586 79.8613 21.9414C79.498 21.8242 79.1719 21.6562 78.8828 21.4375C78.5977 21.2148 78.3652 20.9453 78.1855 20.6289C78.0059 20.3086 77.9102 19.9453 77.8984 19.5391H79.0059C79.041 19.8047 79.1133 20.041 79.2227 20.248C79.332 20.4512 79.4727 20.625 79.6445 20.7695C79.8164 20.9102 80.0137 21.0176 80.2363 21.0918C80.4629 21.1621 80.709 21.1973 80.9746 21.1973C81.1855 21.1973 81.3926 21.1719 81.5957 21.1211C81.8027 21.0664 81.9863 20.9844 82.1465 20.875C82.3066 20.7617 82.4375 20.6211 82.5391 20.4531C82.6406 20.2812 82.6914 20.0781 82.6914 19.8438ZM86.6582 21.0801H90.8301V22H85.5742V13.4688H86.6582V21.0801ZM92.6406 13.4688H97.7969V14.4121H95.752V21.0625H97.7969V22H92.6406V21.0625H94.6387V14.4121H92.6406V13.4688ZM105.191 22H104.09L100.779 15.625L100.762 22H99.666V13.4688H100.768L104.078 19.832L104.096 13.4688H105.191V22ZM112.809 14.3945H110.172V22H109.117V14.3945H106.48V13.4688H112.809V14.3945ZM126.994 19.4336C126.943 19.8281 126.842 20.1914 126.689 20.5234C126.537 20.8516 126.338 21.1348 126.092 21.373C125.85 21.6074 125.561 21.791 125.225 21.9238C124.893 22.0527 124.521 22.1172 124.111 22.1172C123.76 22.1172 123.439 22.0684 123.15 21.9707C122.865 21.8691 122.609 21.7305 122.383 21.5547C122.16 21.3789 121.967 21.1719 121.803 20.9336C121.643 20.6953 121.508 20.4355 121.398 20.1543C121.293 19.873 121.213 19.5781 121.158 19.2695C121.107 18.9609 121.08 18.6484 121.076 18.332V17.1426C121.08 16.8262 121.107 16.5137 121.158 16.2051C121.213 15.8965 121.293 15.6016 121.398 15.3203C121.508 15.0391 121.643 14.7793 121.803 14.541C121.967 14.2988 122.16 14.0898 122.383 13.9141C122.609 13.7383 122.865 13.6016 123.15 13.5039C123.436 13.4023 123.756 13.3516 124.111 13.3516C124.537 13.3516 124.918 13.418 125.254 13.5508C125.59 13.6797 125.879 13.8652 126.121 14.1074C126.363 14.3457 126.557 14.6328 126.701 14.9688C126.85 15.3047 126.947 15.6758 126.994 16.082H125.91C125.875 15.8242 125.814 15.584 125.729 15.3613C125.643 15.1387 125.527 14.9434 125.383 14.7754C125.238 14.6074 125.061 14.4766 124.85 14.3828C124.643 14.2852 124.396 14.2363 124.111 14.2363C123.854 14.2363 123.625 14.2793 123.426 14.3652C123.23 14.4473 123.061 14.5605 122.916 14.7051C122.775 14.8496 122.656 15.0176 122.559 15.209C122.465 15.4004 122.389 15.6035 122.33 15.8184C122.271 16.0332 122.229 16.2539 122.201 16.4805C122.178 16.7031 122.166 16.9199 122.166 17.1309V18.332C122.166 18.543 122.178 18.7617 122.201 18.9883C122.229 19.2109 122.271 19.4316 122.33 19.6504C122.389 19.8652 122.465 20.0684 122.559 20.2598C122.652 20.4512 122.771 20.6211 122.916 20.7695C123.061 20.9141 123.23 21.0293 123.426 21.1152C123.621 21.1973 123.85 21.2383 124.111 21.2383C124.396 21.2383 124.643 21.1934 124.85 21.1035C125.061 21.0137 125.238 20.8887 125.383 20.7285C125.527 20.5645 125.643 20.373 125.729 20.1543C125.814 19.9316 125.875 19.6914 125.91 19.4336H126.994ZM134.225 18.2266C134.221 18.5312 134.193 18.8398 134.143 19.1523C134.096 19.4609 134.021 19.7598 133.92 20.0488C133.818 20.3379 133.688 20.6074 133.527 20.8574C133.371 21.1074 133.184 21.3262 132.965 21.5137C132.746 21.7012 132.494 21.8496 132.209 21.959C131.928 22.0645 131.611 22.1172 131.26 22.1172C130.908 22.1172 130.59 22.0645 130.305 21.959C130.023 21.8496 129.773 21.7012 129.555 21.5137C129.336 21.3262 129.146 21.1074 128.986 20.8574C128.826 20.6035 128.693 20.332 128.588 20.043C128.486 19.7539 128.41 19.4551 128.359 19.1465C128.309 18.8379 128.281 18.5312 128.277 18.2266V17.2539C128.281 16.9492 128.307 16.6426 128.354 16.334C128.404 16.0215 128.48 15.7207 128.582 15.4316C128.688 15.1426 128.818 14.873 128.975 14.623C129.135 14.3691 129.324 14.1484 129.543 13.9609C129.762 13.7695 130.012 13.6211 130.293 13.5156C130.578 13.4062 130.896 13.3516 131.248 13.3516C131.6 13.3516 131.918 13.4062 132.203 13.5156C132.488 13.6211 132.74 13.7676 132.959 13.9551C133.178 14.1426 133.365 14.3633 133.521 14.6172C133.682 14.8672 133.812 15.1367 133.914 15.4258C134.02 15.7148 134.096 16.0156 134.143 16.3281C134.193 16.6406 134.221 16.9492 134.225 17.2539V18.2266ZM133.152 17.2422C133.148 17.0391 133.135 16.8281 133.111 16.6094C133.088 16.3867 133.047 16.168 132.988 15.9531C132.934 15.7344 132.859 15.5273 132.766 15.332C132.672 15.1328 132.555 14.959 132.414 14.8105C132.273 14.6582 132.107 14.5391 131.916 14.4531C131.725 14.3633 131.502 14.3184 131.248 14.3184C130.998 14.3184 130.777 14.3633 130.586 14.4531C130.395 14.543 130.229 14.6641 130.088 14.8164C129.947 14.9648 129.83 15.1387 129.736 15.3379C129.643 15.5332 129.566 15.7402 129.508 15.959C129.453 16.1738 129.412 16.3926 129.385 16.6152C129.361 16.834 129.348 17.043 129.344 17.2422V18.2266C129.348 18.4258 129.361 18.6367 129.385 18.8594C129.412 19.082 129.455 19.3027 129.514 19.5215C129.572 19.7363 129.648 19.9434 129.742 20.1426C129.836 20.3418 129.953 20.5176 130.094 20.6699C130.234 20.8184 130.4 20.9375 130.592 21.0273C130.783 21.1172 131.006 21.1621 131.26 21.1621C131.514 21.1621 131.736 21.1172 131.928 21.0273C132.123 20.9375 132.289 20.8184 132.426 20.6699C132.566 20.5176 132.682 20.3438 132.771 20.1484C132.865 19.9492 132.939 19.7422 132.994 19.5273C133.053 19.3086 133.092 19.0879 133.111 18.8652C133.135 18.6426 133.148 18.4297 133.152 18.2266V17.2422ZM141.227 22H140.125L136.814 15.625L136.797 22H135.701V13.4688H136.803L140.113 19.832L140.131 13.4688H141.227V22ZM147.836 18.2324H144.285V22H143.189V13.4688H148.428V14.3945H144.285V17.3125H147.836V18.2324ZM150.297 13.4688H155.453V14.4121H153.408V21.0625H155.453V22H150.297V21.0625H152.295V14.4121H150.297V13.4688ZM163.023 20.8809C162.664 21.3027 162.252 21.6152 161.787 21.8184C161.322 22.0215 160.812 22.1211 160.258 22.1172C159.906 22.1133 159.582 22.0605 159.285 21.959C158.992 21.8535 158.729 21.7109 158.494 21.5312C158.26 21.3477 158.055 21.1328 157.879 20.8867C157.703 20.6406 157.555 20.375 157.434 20.0898C157.316 19.8008 157.227 19.5 157.164 19.1875C157.105 18.8711 157.074 18.5527 157.07 18.2324V17.2422C157.074 16.9258 157.102 16.6113 157.152 16.2988C157.207 15.9824 157.289 15.6797 157.398 15.3906C157.508 15.1016 157.645 14.834 157.809 14.5879C157.973 14.3379 158.168 14.123 158.395 13.9434C158.625 13.7598 158.885 13.6152 159.174 13.5098C159.463 13.4043 159.787 13.3516 160.146 13.3516C160.545 13.3516 160.912 13.4141 161.248 13.5391C161.584 13.6602 161.877 13.8359 162.127 14.0664C162.377 14.293 162.578 14.5684 162.73 14.8926C162.883 15.2129 162.977 15.5723 163.012 15.9707H161.939C161.896 15.7246 161.83 15.498 161.74 15.291C161.65 15.0801 161.531 14.9004 161.383 14.752C161.238 14.6035 161.064 14.4883 160.861 14.4062C160.658 14.3203 160.422 14.2773 160.152 14.2773C159.895 14.2773 159.666 14.3223 159.467 14.4121C159.268 14.498 159.094 14.6152 158.945 14.7637C158.797 14.9121 158.674 15.0859 158.576 15.2852C158.479 15.4805 158.398 15.6875 158.336 15.9062C158.273 16.125 158.229 16.3477 158.201 16.5742C158.174 16.8008 158.16 17.0195 158.16 17.2305V18.2324C158.164 18.4473 158.182 18.6699 158.213 18.9004C158.248 19.127 158.301 19.3496 158.371 19.5684C158.441 19.7871 158.531 19.9941 158.641 20.1895C158.75 20.3848 158.881 20.5566 159.033 20.7051C159.189 20.8535 159.369 20.9727 159.572 21.0625C159.775 21.1484 160.006 21.1934 160.264 21.1973C160.412 21.2012 160.566 21.1953 160.727 21.1797C160.891 21.1641 161.049 21.1328 161.201 21.0859C161.354 21.0391 161.496 20.9766 161.629 20.8984C161.762 20.8164 161.873 20.7109 161.963 20.582L161.975 18.666H160.24V17.752H163.006L163.023 20.8809Z" fill="black"/>
<path d="M70.492 56V30.296H73.732V53.12H84.964V56H70.492ZM103.735 56H89.3709V30.296H103.735V33.14H92.6109V41.168H103.087V43.976H92.6109V53.156H103.735V56ZM120.715 56L112.255 33.464H112.111C112.183 34.208 112.243 35.216 112.291 36.488C112.339 37.736 112.363 39.044 112.363 40.412V56H109.375V30.296H114.163L122.083 51.356H122.227L130.291 30.296H135.043V56H131.839V40.196C131.839 38.948 131.863 37.712 131.911 36.488C131.983 35.264 132.043 34.268 132.091 33.5H131.947L123.379 56H120.715ZM164.463 43.112C164.463 45.776 164.007 48.104 163.095 50.096C162.207 52.064 160.887 53.6 159.135 54.704C157.383 55.808 155.211 56.36 152.619 56.36C149.955 56.36 147.735 55.808 145.959 54.704C144.207 53.6 142.899 52.052 142.035 50.06C141.171 48.068 140.739 45.74 140.739 43.076C140.739 40.436 141.171 38.132 142.035 36.164C142.899 34.196 144.207 32.66 145.959 31.556C147.735 30.452 149.967 29.9 152.655 29.9C155.223 29.9 157.383 30.452 159.135 31.556C160.887 32.636 162.207 34.172 163.095 36.164C164.007 38.132 164.463 40.448 164.463 43.112ZM144.159 43.112C144.159 46.352 144.843 48.908 146.211 50.78C147.579 52.628 149.715 53.552 152.619 53.552C155.547 53.552 157.683 52.628 159.027 50.78C160.371 48.908 161.043 46.352 161.043 43.112C161.043 39.872 160.371 37.34 159.027 35.516C157.683 33.668 155.559 32.744 152.655 32.744C149.751 32.744 147.603 33.668 146.211 35.516C144.843 37.34 144.159 39.872 144.159 43.112ZM190.536 56H186.756L173.004 34.652H172.86C172.908 35.492 172.968 36.536 173.04 37.784C173.112 39.032 173.148 40.316 173.148 41.636V56H170.16V30.296H173.904L187.62 51.572H187.764C187.74 51.188 187.704 50.612 187.656 49.844C187.632 49.076 187.596 48.236 187.548 47.324C187.524 46.412 187.512 45.572 187.512 44.804V30.296H190.536V56Z" fill="black"/>
<path d="M41.85 11V53C53.448 53 62.85 43.598 62.85 32C62.85 20.402 53.448 11 41.85 11Z" fill="#F9D70B"/>
<path d="M21 40.377C21 42.586 19.209 44.377 17 44.377C14.791 44.377 13 42.586 13 40.377C13 38.789 15.068 34.659 16.23 32.464C16.557 31.846 17.443 31.846 17.77 32.464C18.932 34.659 21 38.788 21 40.377Z" fill="#F1B501"/>
<path d="M35 57C35 59.209 33.209 61 31 61C28.791 61 27 59.209 27 57C27 55.412 29.068 51.282 30.23 49.087C30.557 48.469 31.443 48.469 31.77 49.087C32.932 51.282 35 55.412 35 57Z" fill="#F9DA49"/>
<path d="M41.85 18.776C33.66 13.054 22.31 13.83 15 21.14L41.849 47.989V18.776H41.85Z" fill="#F1B501"/>
<path d="M41.85 23.949C35.209 17.33 24.461 17.336 17.829 23.968L41.85 47.989V23.949Z" fill="#F9DA49"/>
<path d="M41.85 23.949C41.618 23.717 41.369 23.513 41.127 23.298L30.85 33.575V19.037C30.718 19.029 30.586 19.023 30.454 19.018H29.236C29.107 19.023 28.979 19.029 28.85 19.037V34.989L29.85 35.988L30.85 36.988H41.82V34.988H32.264L41.849 25.402V23.949H41.85Z" fill="#F9EA80"/>
<path d="M41.85 11V53C53.448 53 62.85 43.598 62.85 32C62.85 20.402 53.448 11 41.85 11Z" fill="#F1B501"/>
<path d="M41.85 15V49C51.239 49 58.85 41.389 58.85 32C58.85 22.611 51.238 15 41.85 15Z" fill="#F9EA80"/>
<path d="M54.544 20.72C54.458 20.623 54.371 20.527 54.283 20.432L53.418 19.567C53.323 19.479 53.227 19.392 53.131 19.306L41.851 30.586V32V33.413L53.131 44.693C53.229 44.606 53.325 44.519 53.421 44.43L54.282 43.569C54.371 43.473 54.459 43.377 54.546 43.279L44.264 33H58.799C58.818 32.667 58.849 32.338 58.849 32C58.849 31.662 58.818 31.333 58.799 31H44.264L54.544 20.72Z" fill="#F9DA49"/>
<rect x="0.5" y="0.5" width="204" height="70" rx="2.5" stroke="black"/>
</svg>
